<svg version="1.2" xmlns="http://www.w3.org/2000/svg" viewBox="0 0 1080 1080" width="1080" height="1080">
	<title>linkedin</title>
	<style>
		.s0 { fill: #ffffff } 
	</style>
	<path id="Path 0" fill-rule="evenodd" class="s0" d="m575 2.6c189 0.1 330.3 0.6 352.5 1.3 20.4 0.5 40.1 1.5 44 2 3.9 0.6 10.6 2.2 15 3.6 4.4 1.5 11.8 4.6 16.5 6.9 4.7 2.3 11.2 6 14.5 8.3 3.3 2.2 10 7.7 15 12.1 5 4.4 12.2 12 16.1 16.8 3.9 4.9 8.9 12.1 11.2 15.9 2.2 3.8 5.6 10.8 7.5 15.5 2 4.7 4.5 12.3 5.7 17 1.5 6 2.4 14.4 3.2 28.5 0.6 13 1.1 150.9 1.3 395 0.1 206.3-0.2 388.5-0.6 405-0.5 16.5-1.3 34-1.9 39-0.6 5-2.3 12.4-3.7 16.5-1.4 4.1-4.9 12.5-7.8 18.5-3.1 6.5-8.2 14.7-12.3 20-3.8 5-10.9 12.8-15.8 17.4-4.9 4.6-11.8 10.6-15.4 13.4-3.6 2.7-10.5 6.8-15.5 9.2-5 2.4-13 5.8-18 7.4-5 1.6-13.3 3.6-18.5 4.2-7.4 1-99.8 1.3-416.5 1.5-223.9 0.1-414.2-0.2-423-0.7-8.8-0.4-19.4-1.3-23.5-2-4.1-0.6-10.4-2.2-14-3.4-3.6-1.2-7.4-2.7-8.5-3.2-1.1-0.6-6-3-10.9-5.4-4.9-2.4-10.1-5.5-11.6-6.9-1.5-1.4-3.9-3.2-5.5-4-1.5-0.8-6.3-4.7-10.6-8.5-4.3-3.8-10-9.7-12.7-13-2.7-3.3-6.5-8.5-8.4-11.5-2-3-5-8.4-6.8-12-1.8-3.6-5.9-13.3-15-36.5v-426.5c0-245.7 0.4-428.8 0.9-432 0.5-3 2.9-10.9 5.4-17.5 2.4-6.6 6.3-15.6 8.5-20 2.2-4.4 6.3-11.1 9.1-15 2.8-3.9 9.5-11.4 14.9-16.9 5.3-5.4 12.6-12 16.2-14.7 3.6-2.6 10.5-6.9 15.5-9.5 5-2.6 13.3-6.2 18.5-8 5.2-1.8 13.3-3.7 18-4.3 4.7-0.6 29.6-1.5 55.5-2.1 25.9-0.6 58-1.2 71.5-1.3 13.5-0.2 166.5-0.2 340-0.1zm-338.5 189.7c-6.1 3-13.7 7.4-17 9.9-3.3 2.5-8.7 7.4-11.9 10.9-3.3 3.5-8.5 10.2-11.6 14.9-3.1 4.7-6.4 10.8-7.5 13.5-1.5 4.1-1.9 8.8-2.3 27-0.4 18.8-0.2 22.9 1.3 28 0.9 3.3 3.1 8.7 4.7 12 1.7 3.3 4.8 8.5 6.8 11.5 2.1 3 7.2 8.8 11.4 12.8 4.2 3.9 10.2 8.9 13.3 10.9 3.2 2 9.4 5.3 13.8 7.4 4.4 2 10.4 4.1 13.2 4.8 2.9 0.6 12.5 1.1 21.3 1.1h16c12.8-5.5 19.4-8.7 23-10.6 3.6-1.9 9.4-5.8 12.9-8.7 3.6-2.8 8.9-8.3 11.8-12.2 2.9-3.9 6.9-9.9 8.7-13.5 1.9-3.6 4.7-10.1 6.2-14.5 2.3-6.9 2.8-10 3.2-22.5 0.2-8 0-17-0.6-20-0.6-3-2.4-9.1-4.1-13.5-1.7-4.4-4.7-10.8-6.8-14.3-2.1-3.4-5.8-8.7-8.3-11.8-2.5-3.1-7.9-8.3-12-11.7-4.1-3.3-9.8-7.1-12.5-8.5-2.8-1.4-7.9-3.6-11.5-5-6-2.3-8.1-2.5-28.5-2.9l-22-0.4zm444.5 221.1c-4.1 0.9-11.5 3.3-16.5 5.3-5 1.9-11.3 4.7-14 6-2.8 1.4-8.4 4.6-12.5 7.1-4.1 2.5-12.9 8.4-19.5 13.1-6.6 4.7-12.4 9.2-12.9 10.1-0.6 0.8-3.6 4.2-6.9 7.5-3.2 3.3-8.2 9.1-11 12.9-2.9 3.8-5.7 6.9-6.2 6.8-0.5-0.1-1.3-4.4-1.6-9.5-0.4-5-0.7-18.3-0.8-29.5l-0.1-20.2h-139v473c123.2 0 138.1-0.3 138.7-1.3 0.3-0.7 0.7-30.7 0.9-66.7 0.2-36 0.6-92.3 0.9-125 0.4-32.7 1-67.4 1.5-77 0.6-12.5 1.5-19.6 2.9-24.8 1.2-4 3.5-10 5.2-13.5 1.7-3.4 5.5-9.4 8.3-13.2 2.9-3.9 8-9.5 11.4-12.5 3.4-3 9-7.2 12.5-9.3 3.4-2.1 9.8-5.1 14.2-6.8 5.6-2.1 11-3.3 18-3.9 5.5-0.5 14.3-1 19.5-1 5.3 0 12.1 0.7 15.5 1.6 3.3 0.8 10.3 3.6 15.5 6.2 6.8 3.3 11.5 6.5 16.4 11.2 3.7 3.6 8.7 9.2 10.9 12.5 2.3 3.3 6.5 11.2 9.5 17.5q5.5 11.5 6.2 17.5c0.5 3.3 1.1 63.8 1.4 134.5 0.4 70.7 1 134.2 1.4 141.2l0.7 12.8h142.5c0-242.3-0.4-310-1.1-323-0.7-14.1-1.7-24.6-3-30.5-1.1-5-3.1-12.8-4.5-17.5-1.4-4.7-4.6-13.5-7.1-19.5-2.4-6.1-7-15.3-10-20.5-3.1-5.2-8.4-13.1-11.8-17.5-3.4-4.4-10.2-11.8-15.1-16.4-4.9-4.6-13.2-11.2-18.4-14.7-5.2-3.4-14.7-8.8-21-11.8-6.3-3-15.1-6.7-19.5-8.1-5-1.6-13.1-3.1-21.5-4-7.4-0.7-20.7-1.6-29.5-1.8-8.8-0.3-22.1-0.1-29.5 0.3-7.4 0.4-16.9 1.5-21 2.4zm-484.3 72.8c-0.4 34.8-0.7 115.7-0.7 179.8 0 64.1 0.3 141.8 0.8 172.8l0.7 56.3c3.9 1.1 35.7 1.4 73.2 1.4 37.5 0 68.5-0.4 69-0.8 0.4-0.5 0.9-107 1.1-236.8l0.2-235.9h-143.7z"/>
</svg>